<svg xmlns="http://www.w3.org/2000/svg" xmlns:xlink="http://www.w3.org/1999/xlink" width="500" zoomAndPan="magnify" viewBox="0 0 375 374.999991" height="500" preserveAspectRatio="xMidYMid meet" version="1.2"><defs><clipPath id="4f17d2644a"><path d="M 47 64 L 329.378906 64 L 329.378906 311 L 47 311 Z M 47 64 "/></clipPath></defs><g id="8d5d0e88c7"><g clip-rule="nonzero" clip-path="url(#4f17d2644a)"><path style=" stroke:none;fill-rule:nonzero;fill:#b70000;fill-opacity:1;" d="M 187.882812 257.65625 C 195.425781 257.628906 201.519531 263.726562 201.519531 271.265625 C 201.519531 271.390625 201.519531 271.542969 201.519531 271.667969 C 201.695312 279.210938 195.699219 285.429688 188.183594 285.601562 C 180.664062 285.753906 174.421875 279.785156 174.269531 272.242188 C 174.269531 272.066406 174.269531 271.867188 174.269531 271.667969 C 174.046875 264.148438 179.964844 257.878906 187.484375 257.65625 C 187.632812 257.65625 187.757812 257.65625 187.90625 257.65625 Z M 187.882812 132.027344 C 188.15625 132.003906 188.433594 132.003906 188.707031 132.027344 C 197.148438 132.230469 203.816406 139.246094 203.59375 147.664062 C 203.59375 147.8125 203.59375 147.964844 203.566406 148.113281 L 198.847656 229.683594 C 198.421875 235.476562 193.402344 239.847656 187.609375 239.421875 C 182.386719 239.050781 178.242188 234.902344 177.867188 229.683594 L 173.121094 148.113281 C 172.671875 139.671875 179.140625 132.476562 187.558594 132.027344 C 187.707031 132.027344 187.859375 132.027344 187.984375 132.027344 Z M 187.882812 64.070312 C 184.085938 64.296875 180.664062 66.394531 178.742188 69.691406 L 49.292969 293.84375 C 46.195312 299.238281 48.042969 306.109375 53.441406 309.203125 C 55.136719 310.179688 57.0625 310.703125 59.035156 310.703125 L 317.878906 310.703125 C 324.097656 310.703125 329.121094 305.683594 329.121094 299.464844 C 329.121094 297.492188 328.59375 295.542969 327.621094 293.84375 L 198.222656 69.691406 C 196.101562 66.042969 192.128906 63.871094 187.90625 64.070312 L 187.882812 64.070312 "/></g></g></svg>