<svg xmlns="http://www.w3.org/2000/svg" xmlns:xlink="http://www.w3.org/1999/xlink" width="500" zoomAndPan="magnify" viewBox="0 0 375 374.999991" height="500" preserveAspectRatio="xMidYMid meet" version="1.0"><defs><clipPath id="7e24f199e0"><path d="M 31.429688 79.617188 L 277 79.617188 L 277 242 L 31.429688 242 Z M 31.429688 79.617188 " clip-rule="nonzero"/></clipPath><clipPath id="beef200185"><path d="M 83 262 L 116 262 L 116 295.617188 L 83 295.617188 Z M 83 262 " clip-rule="nonzero"/></clipPath><clipPath id="fc8c9e1164"><path d="M 120 262 L 153 262 L 153 295.617188 L 120 295.617188 Z M 120 262 " clip-rule="nonzero"/></clipPath><clipPath id="c709801e64"><path d="M 157 262 L 190 262 L 190 295.617188 L 157 295.617188 Z M 157 262 " clip-rule="nonzero"/></clipPath><clipPath id="f529f916d3"><path d="M 194 262 L 227 262 L 227 295.617188 L 194 295.617188 Z M 194 262 " clip-rule="nonzero"/></clipPath></defs><g clip-path="url(#7e24f199e0)"><path fill="#b70000" d="M 234.511719 221.164062 C 238.324219 227.492188 237.496094 235.910156 232.027344 241.34375 L 231.496094 241.875 L 243.589844 241.875 C 257.972656 241.875 270.429688 233.390625 276.195312 221.164062 Z M 223.3125 136.109375 C 221.027344 134.980469 218.640625 134.054688 216.15625 133.390625 C 209.859375 102.476562 182.390625 79.710938 150.351562 79.710938 C 113.304688 79.710938 83.1875 109.832031 83.1875 146.875 L 83.1875 157.710938 L 73.578125 157.710938 C 50.351562 157.710938 31.496094 176.566406 31.496094 199.792969 C 31.496094 223.019531 50.351562 241.875 73.578125 241.875 L 75.070312 241.875 C 75.863281 240.019531 77.023438 238.261719 78.515625 236.769531 L 97.335938 217.917969 C 100.484375 214.800781 104.625 213.078125 109.066406 213.078125 C 113.503906 213.078125 117.648438 214.800781 120.792969 217.949219 C 123.347656 220.5 124.835938 223.683594 125.367188 226.996094 L 134.445312 217.917969 C 137.5625 214.800781 141.734375 213.078125 146.140625 213.078125 C 150.582031 213.078125 154.757812 214.800781 157.871094 217.949219 C 160.421875 220.5 161.914062 223.683594 162.445312 226.996094 L 171.523438 217.917969 C 174.636719 214.800781 178.8125 213.078125 183.21875 213.078125 C 187.660156 213.078125 191.835938 214.800781 194.949219 217.949219 C 197.5 220.5 199.027344 223.683594 199.554688 226.996094 L 207.804688 218.710938 C 203.167969 216.558594 199.222656 212.980469 196.507812 208.308594 C 191.867188 200.222656 191.867188 190.613281 196.507812 182.5625 Z M 223.3125 136.109375 " fill-opacity="1" fill-rule="nonzero"/></g><path fill="#b70000" d="M 90.210938 255.128906 C 88.519531 255.128906 86.832031 254.464844 85.539062 253.171875 C 82.953125 250.589844 82.953125 246.378906 85.539062 243.796875 L 104.394531 224.941406 C 106.976562 222.355469 111.183594 222.355469 113.769531 224.941406 C 116.355469 227.527344 116.355469 231.734375 113.769531 234.320312 L 94.917969 253.171875 C 93.625 254.464844 91.902344 255.128906 90.210938 255.128906 Z M 90.210938 255.128906 " fill-opacity="1" fill-rule="nonzero"/><path fill="#b70000" d="M 127.289062 255.128906 C 125.597656 255.128906 123.910156 254.464844 122.617188 253.171875 C 120.03125 250.589844 120.03125 246.378906 122.617188 243.796875 L 141.46875 224.941406 C 144.054688 222.355469 148.261719 222.355469 150.847656 224.941406 C 153.433594 227.527344 153.433594 231.734375 150.847656 234.320312 L 131.992188 253.171875 C 130.703125 254.464844 129.011719 255.128906 127.289062 255.128906 Z M 127.289062 255.128906 " fill-opacity="1" fill-rule="nonzero"/><path fill="#b70000" d="M 164.398438 255.128906 C 162.710938 255.128906 161.019531 254.464844 159.726562 253.171875 C 157.144531 250.589844 157.144531 246.378906 159.726562 243.796875 L 178.582031 224.941406 C 181.164062 222.355469 185.375 222.355469 187.957031 224.941406 C 190.542969 227.527344 190.542969 231.734375 187.957031 234.320312 L 169.105469 253.171875 C 167.78125 254.464844 166.089844 255.128906 164.398438 255.128906 Z M 164.398438 255.128906 " fill-opacity="1" fill-rule="nonzero"/><path fill="#b70000" d="M 201.476562 255.128906 C 199.789062 255.128906 198.097656 254.464844 196.804688 253.171875 C 194.222656 250.589844 194.222656 246.378906 196.804688 243.796875 L 215.660156 224.941406 C 218.242188 222.355469 222.453125 222.355469 225.035156 224.941406 C 227.621094 227.527344 227.621094 231.734375 225.035156 234.320312 L 206.183594 253.171875 C 204.855469 254.464844 203.167969 255.128906 201.476562 255.128906 Z M 201.476562 255.128906 " fill-opacity="1" fill-rule="nonzero"/><g clip-path="url(#beef200185)"><path fill="#b70000" d="M 90.210938 295.054688 C 88.519531 295.054688 86.832031 294.390625 85.539062 293.101562 C 82.953125 290.515625 82.953125 286.308594 85.539062 283.722656 L 104.394531 264.867188 C 106.976562 262.285156 111.183594 262.285156 113.769531 264.867188 C 116.355469 267.453125 116.355469 271.660156 113.769531 274.246094 L 94.917969 293.101562 C 93.625 294.425781 91.902344 295.054688 90.210938 295.054688 Z M 90.210938 295.054688 " fill-opacity="1" fill-rule="nonzero"/></g><g clip-path="url(#fc8c9e1164)"><path fill="#b70000" d="M 127.289062 295.054688 C 125.597656 295.054688 123.910156 294.390625 122.617188 293.101562 C 120.03125 290.515625 120.03125 286.308594 122.617188 283.722656 L 141.46875 264.867188 C 144.054688 262.285156 148.261719 262.285156 150.847656 264.867188 C 153.433594 267.453125 153.433594 271.660156 150.847656 274.246094 L 131.992188 293.101562 C 130.703125 294.425781 129.011719 295.054688 127.289062 295.054688 Z M 127.289062 295.054688 " fill-opacity="1" fill-rule="nonzero"/></g><g clip-path="url(#c709801e64)"><path fill="#b70000" d="M 164.398438 295.054688 C 162.710938 295.054688 161.019531 294.390625 159.726562 293.101562 C 157.144531 290.515625 157.144531 286.308594 159.726562 283.722656 L 178.582031 264.867188 C 181.164062 262.285156 185.375 262.285156 187.957031 264.867188 C 190.542969 267.453125 190.542969 271.660156 187.957031 274.246094 L 169.105469 293.101562 C 167.78125 294.425781 166.089844 295.054688 164.398438 295.054688 Z M 164.398438 295.054688 " fill-opacity="1" fill-rule="nonzero"/></g><g clip-path="url(#f529f916d3)"><path fill="#b70000" d="M 201.476562 295.054688 C 199.789062 295.054688 198.097656 294.390625 196.804688 293.101562 C 194.222656 290.515625 194.222656 286.308594 196.804688 283.722656 L 215.660156 264.867188 C 218.242188 262.285156 222.453125 262.285156 225.035156 264.867188 C 227.621094 267.453125 227.621094 271.660156 225.035156 274.246094 L 206.183594 293.101562 C 204.855469 294.425781 203.167969 295.054688 201.476562 295.054688 Z M 201.476562 295.054688 " fill-opacity="1" fill-rule="nonzero"/></g><path fill="#b70000" d="M 340.808594 187.53125 L 286.667969 93.726562 C 283.816406 88.792969 278.679688 85.808594 272.980469 85.808594 C 267.28125 85.808594 262.148438 88.757812 259.296875 93.726562 L 205.121094 187.53125 C 202.273438 192.46875 202.273438 198.402344 205.121094 203.335938 C 207.972656 208.273438 213.109375 211.257812 218.808594 211.257812 L 327.125 211.257812 C 332.824219 211.257812 337.960938 208.308594 340.808594 203.371094 C 343.660156 198.367188 343.660156 192.46875 340.808594 187.53125 Z M 277.785156 186.703125 C 276.429688 187.929688 274.835938 188.527344 273.015625 188.527344 C 271.160156 188.527344 269.570312 187.929688 268.175781 186.738281 C 266.785156 185.542969 266.125 183.886719 266.125 181.734375 C 266.125 179.84375 266.785156 178.253906 268.109375 176.960938 C 269.4375 175.636719 271.027344 174.972656 272.949219 174.972656 C 274.871094 174.972656 276.496094 175.636719 277.820312 176.960938 C 279.179688 178.289062 279.839844 179.878906 279.839844 181.734375 C 279.808594 183.820312 279.144531 185.476562 277.785156 186.703125 Z M 277.554688 158.773438 C 277.355469 161.421875 276.890625 163.476562 276.195312 164.902344 C 275.5 166.328125 274.339844 167.023438 272.75 167.023438 C 271.125 167.023438 270 166.328125 269.335938 164.96875 C 268.707031 163.578125 268.242188 161.488281 267.980469 158.671875 L 266.519531 136.9375 C 266.253906 132.695312 266.125 129.679688 266.125 127.824219 C 266.125 125.304688 266.785156 123.351562 268.109375 121.960938 C 269.4375 120.566406 271.160156 119.839844 273.3125 119.839844 C 275.898438 119.839844 277.652344 120.734375 278.515625 122.523438 C 279.378906 124.3125 279.839844 127.492188 279.839844 130.90625 C 279.808594 138.992188 277.554688 158.773438 277.554688 158.773438 Z M 277.554688 158.773438 " fill-opacity="1" fill-rule="nonzero"/></svg>